<svg width="24" height="24" viewBox="0 0 24 24" fill="none" xmlns="http://www.w3.org/2000/svg">
<path fill-rule="evenodd" clip-rule="evenodd" d="M4.855 7.49605C4.91074 7.44012 4.97698 7.39574 5.04991 7.36545C5.12284 7.33517 5.20103 7.31958 5.28 7.31958C5.35897 7.31958 5.43716 7.33517 5.51009 7.36545C5.58302 7.39574 5.64926 7.44012 5.705 7.49605L12.48 14.2721L19.255 7.49605C19.3677 7.38334 19.5206 7.32001 19.68 7.32001C19.8394 7.32001 19.9923 7.38334 20.105 7.49605C20.2177 7.60877 20.281 7.76165 20.281 7.92105C20.281 8.08046 20.2177 8.23334 20.105 8.34605L12.905 15.5461C12.8493 15.602 12.783 15.6464 12.7101 15.6767C12.6372 15.7069 12.559 15.7225 12.48 15.7225C12.401 15.7225 12.3228 15.7069 12.2499 15.6767C12.177 15.6464 12.1107 15.602 12.055 15.5461L4.855 8.34605C4.79907 8.29031 4.75468 8.22408 4.7244 8.15114C4.69412 8.07821 4.67853 8.00002 4.67853 7.92105C4.67853 7.84208 4.69412 7.76389 4.7244 7.69096C4.75468 7.61803 4.79907 7.5518 4.855 7.49605Z" fill="#28262C"/>
</svg>
