<svg width="30" height="31" viewBox="0 0 30 31" fill="none" xmlns="http://www.w3.org/2000/svg">
<path d="M25.591 4.59364C24.2024 3.1956 22.5509 2.08625 20.7315 1.32953C18.9122 0.572814 16.9611 0.183704 14.9906 0.184633C6.69794 0.184633 0 6.90133 0 15.194C0 23.4867 6.69794 30.2034 14.9906 30.2034C21.9887 30.2034 27.8236 25.4192 29.4934 18.9464H25.591C24.8181 21.1406 23.3834 23.0409 21.4847 24.3851C19.586 25.7293 17.317 26.4511 14.9906 26.451C8.78049 26.451 3.73358 21.4041 3.73358 15.194C3.73358 8.98388 8.78049 3.93698 14.9906 3.93698C18.1051 3.93698 20.8818 5.23154 22.9081 7.27657L16.8668 13.3178H30V0.184633L25.591 4.59364Z" fill="url(#paint0_linear_1_169)"/>
<defs>
<linearGradient id="paint0_linear_1_169" x1="15" y1="0.184631" x2="15" y2="30.2034" gradientUnits="userSpaceOnUse">
<stop stop-color="#06286E"/>
<stop offset="1" stop-color="#164EC0"/>
</linearGradient>
</defs>
</svg>
